<svg width="691" height="689" viewBox="0 0 691 689" fill="none" xmlns="http://www.w3.org/2000/svg">
<path fill-rule="evenodd" clip-rule="evenodd" d="M405.731 585.805C332.337 609.555 261.155 678.04 193.027 641.854C123.028 604.674 127.933 508.296 113.186 430.42C95.997 339.649 44.238 238.355 103.139 167.183C164.502 93.0369 277.967 100.668 372.88 116.625C459.868 131.249 538.772 174.703 587.036 248.535C636.233 323.795 667.446 422.916 624.873 502.111C585.92 574.572 484.002 560.477 405.731 585.805Z" fill="url(#paint0_linear_117_4)"/>
<path fill-rule="evenodd" clip-rule="evenodd" d="M425.141 572.668C389.046 587.881 350.694 603.327 312.787 595.074C273.802 586.585 246.268 556.183 219.265 527.841C189.378 496.471 158.316 464.997 148.803 422.954C137.866 374.618 136.742 321.159 162.684 277.785C189.563 232.846 237.824 201.562 289.217 188.192C338.141 175.463 389.693 186.346 434.941 206.956C475.392 225.381 502.424 260.546 527.24 296.609C550.598 330.555 575.864 366.595 573.165 407.834C570.548 447.81 540.57 480.151 513.232 510.593C488.764 537.84 459.157 558.331 425.141 572.668Z" fill="url(#paint1_linear_117_4)"/>
<path fill-rule="evenodd" clip-rule="evenodd" d="M460.075 532.134C419.376 543.711 376.52 534.116 338.799 518.267C304.968 504.053 284.777 474.463 260.505 448.283C234.036 419.732 187.056 397.487 190.85 358.681C194.696 319.335 248.885 303.783 277.543 273.997C300.869 249.754 313.153 217.324 342.889 200.661C376.714 181.706 416.426 167.342 453.641 175.319C491.496 183.432 521.986 210.862 540.135 242.938C556.843 272.466 544.684 308.334 548.041 342.156C551.877 380.81 578 418.69 561.182 455.013C543.481 493.24 502.159 520.164 460.075 532.134Z" fill="#D07070"/>
<defs>
<linearGradient id="paint0_linear_117_4" x1="435.045" y1="597.611" x2="255.733" y2="90.4098" gradientUnits="userSpaceOnUse">
<stop stop-color="#FBAEAE"/>
<stop offset="1" stop-color="#DE7676"/>
</linearGradient>
<linearGradient id="paint1_linear_117_4" x1="33.3776" y1="406.762" x2="764.949" y2="433.872" gradientUnits="userSpaceOnUse">
<stop stop-color="#E18080"/>
<stop offset="1" stop-color="#E18080" stop-opacity="0"/>
</linearGradient>
</defs>
</svg>
