<?xml version="1.0" standalone="no"?>
<svg xmlns:xlink="http://www.w3.org/1999/xlink" id="wave" style="transform:rotate(0deg); transition: 0.3s" viewBox="0 0 1440 490" version="1.1" xmlns="http://www.w3.org/2000/svg"><defs><linearGradient id="sw-gradient-0" x1="0" x2="0" y1="1" y2="0"><stop stop-color="rgba(245, 215, 215, 1)" offset="0%"/><stop stop-color="rgba(245, 215, 215, 1)" offset="100%"/></linearGradient></defs><path style="transform:translate(0, 0px); opacity:1" fill="url(#sw-gradient-0)" d="M0,343L60,359.3C120,376,240,408,360,408.3C480,408,600,376,720,334.8C840,294,960,245,1080,253.2C1200,261,1320,327,1440,326.7C1560,327,1680,261,1800,196C1920,131,2040,65,2160,106.2C2280,147,2400,294,2520,343C2640,392,2760,343,2880,269.5C3000,196,3120,98,3240,73.5C3360,49,3480,98,3600,163.3C3720,229,3840,310,3960,294C4080,278,4200,163,4320,106.2C4440,49,4560,49,4680,114.3C4800,180,4920,310,5040,367.5C5160,425,5280,408,5400,408.3C5520,408,5640,425,5760,400.2C5880,376,6000,310,6120,236.8C6240,163,6360,82,6480,40.8C6600,0,6720,0,6840,40.8C6960,82,7080,163,7200,204.2C7320,245,7440,245,7560,236.8C7680,229,7800,212,7920,171.5C8040,131,8160,65,8280,73.5C8400,82,8520,163,8580,204.2L8640,245L8640,490L8580,490C8520,490,8400,490,8280,490C8160,490,8040,490,7920,490C7800,490,7680,490,7560,490C7440,490,7320,490,7200,490C7080,490,6960,490,6840,490C6720,490,6600,490,6480,490C6360,490,6240,490,6120,490C6000,490,5880,490,5760,490C5640,490,5520,490,5400,490C5280,490,5160,490,5040,490C4920,490,4800,490,4680,490C4560,490,4440,490,4320,490C4200,490,4080,490,3960,490C3840,490,3720,490,3600,490C3480,490,3360,490,3240,490C3120,490,3000,490,2880,490C2760,490,2640,490,2520,490C2400,490,2280,490,2160,490C2040,490,1920,490,1800,490C1680,490,1560,490,1440,490C1320,490,1200,490,1080,490C960,490,840,490,720,490C600,490,480,490,360,490C240,490,120,490,60,490L0,490Z"/></svg>