<?xml version="1.0" standalone="no"?>
<svg xmlns:xlink="http://www.w3.org/1999/xlink" id="wave" style="transform:rotate(0deg); transition: 0.3s" viewBox="0 0 1440 490" version="1.1" xmlns="http://www.w3.org/2000/svg"><defs><linearGradient id="sw-gradient-0" x1="0" x2="0" y1="1" y2="0"><stop stop-color="rgba(205.231, 140.852, 140.852, 1)" offset="0%"/><stop stop-color="rgba(245, 215, 215, 1)" offset="100%"/></linearGradient></defs><path style="transform:translate(0, 0px); opacity:1" fill="url(#sw-gradient-0)" d="M0,147L48,147C96,147,192,147,288,122.5C384,98,480,49,576,65.3C672,82,768,163,864,171.5C960,180,1056,114,1152,98C1248,82,1344,114,1440,122.5C1536,131,1632,114,1728,106.2C1824,98,1920,98,2016,122.5C2112,147,2208,196,2304,204.2C2400,212,2496,180,2592,163.3C2688,147,2784,147,2880,163.3C2976,180,3072,212,3168,261.3C3264,310,3360,376,3456,383.8C3552,392,3648,343,3744,310.3C3840,278,3936,261,4032,245C4128,229,4224,212,4320,245C4416,278,4512,359,4608,351.2C4704,343,4800,245,4896,212.3C4992,180,5088,212,5184,212.3C5280,212,5376,180,5472,179.7C5568,180,5664,212,5760,212.3C5856,212,5952,180,6048,138.8C6144,98,6240,49,6336,98C6432,147,6528,294,6624,351.2C6720,408,6816,376,6864,359.3L6912,343L6912,490L6864,490C6816,490,6720,490,6624,490C6528,490,6432,490,6336,490C6240,490,6144,490,6048,490C5952,490,5856,490,5760,490C5664,490,5568,490,5472,490C5376,490,5280,490,5184,490C5088,490,4992,490,4896,490C4800,490,4704,490,4608,490C4512,490,4416,490,4320,490C4224,490,4128,490,4032,490C3936,490,3840,490,3744,490C3648,490,3552,490,3456,490C3360,490,3264,490,3168,490C3072,490,2976,490,2880,490C2784,490,2688,490,2592,490C2496,490,2400,490,2304,490C2208,490,2112,490,2016,490C1920,490,1824,490,1728,490C1632,490,1536,490,1440,490C1344,490,1248,490,1152,490C1056,490,960,490,864,490C768,490,672,490,576,490C480,490,384,490,288,490C192,490,96,490,48,490L0,490Z"/></svg>